# xmcd
#
# Track frame offsets:
#	150
#	12852
#	26581
#	39740
#	53480
#	66975
#	79389
#	90828
#	104442
#	117082
#	129870
#	142875
#	156167
#	169877
#	185522
#	202608
#	214040
#	225315
#
# Disc length: 3163 seconds
#
# Revision: 0
# Processed by: cddbd v1.5.2PL0 Copyright (c) Steve Scherf et al.
# Submitted via: audiograbber 1.83.01
#
DISCID=de0c5912
DTITLE=King, B.B. - Best of the blues guitar king 1951-1966
DYEAR=2007
DGENRE=
TTITLE0=Every Day I Have the Blues [Mono Version] 
TTITLE1=You Upset Me Baby [Mono Version] 
TTITLE2=When My Heart Beats Like a Hammer [Mono Version]
TTITLE3=3 O'Clock Blues [Mono Version] 
TTITLE4=Rock Me Baby [Stereo] 
TTITLE5=Sugar Mama [Stereo] 
TTITLE6=Catfish Blues aka Fishin' After Me [Mono Version] 
TTITLE7=Sweet Little Angel [Mono Version] 
TTITLE8=Ten Long Years [Mono Version] 
TTITLE9=Please Love Me [Mono Version] 
TTITLE10=Confessin' the Blues [Mono Version]
TTITLE11=I Need You So Bad [Mono Version] 
TTITLE12=Sweet Sixteen, Pt. 1 [Stereo] 
TTITLE13=Five Long Years [Mono Version] 
TTITLE14=Blue Shadows [Stereo] 
TTITLE15=Eyesight to the Blind [Mono Version] 
TTITLE16=Days of Old [Mono Version] 
TTITLE17=I'll Survive [Stereo] 
EXTD=
EXTT0=
EXTT1=
EXTT2=
EXTT3=
EXTT4=
EXTT5=
EXTT6=
EXTT7=
EXTT8=
EXTT9=
EXTT10=
EXTT11=
EXTT12=
EXTT13=
EXTT14=
EXTT15=
EXTT16=
EXTT17=
PLAYORDER=
